<?xml version="1.0" encoding="utf-8"?>
<!-- Generator: Adobe Illustrator 21.1.0, SVG Export Plug-In . SVG Version: 6.00 Build 0)  -->
<svg version="1.1" id="Layer_1" xmlns="http://www.w3.org/2000/svg" xmlns:xlink="http://www.w3.org/1999/xlink" x="0px" y="0px"
	 viewBox="0 0 1920 1080" style="enable-background:new 0 0 1920 1080;" xml:space="preserve">
<style type="text/css">
	.st0{fill:#FCFAFA;}
</style>
<g>
	<path class="st0" d="M64.2,303.3H14.5V25.1H93c15.2,0,26.6,4,34.2,12c7.6,8,11.4,19.4,11.4,34.4V116c0,5.7-0.7,10.7-2.1,15
		c-1.4,4.2-3.2,7.9-5.4,10.8c-2.2,3-4.7,5.4-7.3,7.3c-2.6,1.9-5,3.3-7.3,4.3c2,0.7,4.2,1.9,6.7,3.6c2.5,1.6,4.8,3.7,6.9,6.4
		c2.1,2.6,3.9,5.8,5.4,9.5c1.5,3.7,2.2,8.2,2.2,13.5v94.6c0,6,0.4,10.5,1.3,13.5c0.9,3,1.8,5.4,2.8,7.1v1.9H92.2
		c-1.3-1.5-2.3-3.9-3.2-7.1c-0.9-3.2-1.3-8-1.3-14.2v-81.1c0-6.5-0.9-10.8-2.8-13.1c-1.9-2.2-5.3-3.4-10.3-3.4H64.2V303.3z
		 M64.2,138.4h9.7c5,0,8.5-1.2,10.7-3.6c2.1-2.4,3.2-6.8,3.2-13.3V83.8c0-6-0.8-10.1-2.4-12.3c-1.6-2.2-4.9-3.4-9.9-3.4H64.2V138.4z
		"/>
	<path class="st0" d="M256.3,25.1v49h-54.2v60.6h42.6v50.1h-42.6v68.4H259v50.1H152.4V25.1H256.3z"/>
	<path class="st0" d="M316.9,25.1l34,142.1V25.1H395v278.1h-42.2l-38.5-152.5v152.5h-44.1V25.1H316.9z"/>
	<path class="st0" d="M514.7,25.1v49h-54.2v60.6h42.6v50.1h-42.6v68.4h56.8v50.1H410.7V25.1H514.7z"/>
	<path class="st0" d="M570.7,307c-7.2,0-13.6-1.4-19.3-4.3c-5.6-2.9-10.3-6.8-14.2-11.8c-3.9-5-6.8-10.8-8.8-17.4
		c-2-6.6-3-13.6-3-21.1V86.8c0-8.5,1-16.6,3-24.5c2-7.9,5.2-14.8,9.7-20.7c4.5-6,10.4-10.8,17.8-14.4c7.3-3.6,16.5-5.4,27.5-5.4
		h10.1c12.2,0,22.1,1.8,29.7,5.4c7.6,3.6,13.5,8.4,17.6,14.4c4.1,6,6.9,12.9,8.2,20.7c1.4,7.9,2.1,15.9,2.1,24.1v30.7h-48.6v-31
		c0-5.7-0.9-10.1-2.6-13.1c-1.7-3-5.1-4.5-10.1-4.5c-8.2,0-12.3,5.9-12.3,17.6v154.8c0,12,4.5,17.9,13.5,17.9
		c9.7,0,14.6-5.7,14.6-17.2v-59.8h-18.3V135h66.2v168.2h-30.3c-0.7-3.2-1.8-7.4-3.2-12.5c-1.4-5.1-2.8-9.8-4.3-14
		c-1.2,2.2-2.9,5.1-5,8.6c-2.1,3.5-4.8,6.9-8,10.1c-3.2,3.2-7.2,6-11.8,8.2c-4.6,2.2-10,3.4-16.3,3.4H570.7z"/>
	<path class="st0" d="M737.9,256.5h-29.9l-4.5,46.7h-44.1l35.1-278.1h59.1l37.8,278.1h-48.2L737.9,256.5z M712.8,208.7H733
		l-10.5-95.3L712.8,208.7z"/>
	<path class="st0" d="M798.4,25.1h70.7c18.7,0,32.4,4.6,41.1,13.8c8.7,9.2,13.1,24.4,13.1,45.6v157c0,19.9-4,35.2-12,45.8
		c-8,10.6-22.1,15.9-42.2,15.9h-70.7V25.1z M848.1,256.9h9.7c5.7,0,9.6-1.6,11.6-4.7c2-3.1,3-8,3-14.8V87.9c0-6.7-1-11.5-3-14.4
		c-2-2.9-5.4-4.3-10.1-4.3h-11.2V256.9z"/>
	<path class="st0" d="M1042.2,25.1v49H988v60.6h42.6v50.1H988v68.4h56.8v50.1H938.2V25.1H1042.2z"/>
	<path class="st0" d="M1094.5,25.1h61.3l19.1,140.6l19.1-140.6h57.2v278.1h-44.9V138.8l-24.7,164.5h-18.7l-25-164.5v164.5h-43.4
		V25.1z"/>
	<path class="st0" d="M1336.8,256.5h-29.9l-4.5,46.7h-44.1l35.1-278.1h59.1l37.8,278.1H1342L1336.8,256.5z M1311.7,208.7h20.2
		l-10.5-95.3L1311.7,208.7z"/>
	<path class="st0" d="M1463.1,21.8c19.4,0,33.2,4.4,41.3,13.3c8.1,8.8,12.2,22.6,12.2,41.3v37.4h-47.9V79c0-4.5-0.7-8-2.1-10.7
		c-1.4-2.6-4.3-3.9-8.8-3.9c-4.2,0-7.1,1.3-8.6,3.9c-1.5,2.6-2.2,6.3-2.2,11v6.4c0,6.5,1,12.3,3,17.6c2,5.2,6.1,11.3,12.3,18.3
		l28.4,31.8c6.2,7,11.3,13.5,15.3,19.6c4,6.1,7.1,12,9.3,17.6c2.2,5.6,3.7,11.2,4.5,16.8c0.7,5.6,1.1,11.4,1.1,17.4v13.1
		c0,20.9-4.9,37.6-14.8,50.1c-9.8,12.5-25.1,18.7-45.8,18.7h-9.7c-18.9,0-33.2-4.9-42.6-14.8c-9.5-9.8-14.2-24.1-14.2-42.8V199h49
		v44.5c0,11.2,4.2,16.8,12.7,16.8c8.2,0,12.3-6.7,12.3-20.2v-5.2c0-4.7-0.1-9-0.4-12.7c-0.3-3.7-0.9-7.2-2.1-10.3
		c-1.1-3.1-2.7-6.3-4.9-9.5c-2.1-3.2-5-6.9-8.8-10.8l-28.8-31.8c-10.5-11.2-17.5-22.4-21.1-33.6c-3.6-11.2-5.4-23.6-5.4-37v-12
		c0-17.9,5-31.6,15.1-41.1c10.1-9.5,23.9-14.2,41.3-14.2H1463.1z"/>
	<path class="st0" d="M1646.3,25.1v49h-35.5v229.2h-49.7V74.1h-35.5v-49H1646.3z"/>
	<path class="st0" d="M1761.1,25.1v49h-54.2v60.6h42.6v50.1h-42.6v68.4h56.8v50.1h-106.5V25.1H1761.1z"/>
	<path class="st0" d="M1824.6,303.3h-49.7V25.1h78.5c15.2,0,26.6,4,34.2,12c7.6,8,11.4,19.4,11.4,34.4V116c0,5.7-0.7,10.7-2.1,15
		c-1.4,4.2-3.2,7.9-5.4,10.8s-4.7,5.4-7.3,7.3s-5,3.3-7.3,4.3c2,0.7,4.2,1.9,6.7,3.6c2.5,1.6,4.8,3.7,6.9,6.4
		c2.1,2.6,3.9,5.8,5.4,9.5c1.5,3.7,2.2,8.2,2.2,13.5v94.6c0,6,0.4,10.5,1.3,13.5c0.9,3,1.8,5.4,2.8,7.1v1.9h-49.7
		c-1.2-1.5-2.3-3.9-3.2-7.1c-0.9-3.2-1.3-8-1.3-14.2v-81.1c0-6.5-0.9-10.8-2.8-13.1s-5.3-3.4-10.3-3.4h-10.5V303.3z M1824.6,138.4
		h9.7c5,0,8.5-1.2,10.7-3.6c2.1-2.4,3.2-6.8,3.2-13.3V83.8c0-6-0.8-10.1-2.4-12.3c-1.6-2.2-4.9-3.4-9.9-3.4h-11.2V138.4z"/>
</g>
</svg>
